<?xml version="1.0" ?><!DOCTYPE svg  PUBLIC '-//W3C//DTD SVG 1.1//EN'  'http://www.w3.org/Graphics/SVG/1.1/DTD/svg11.dtd'><svg enable-background="new 0 0 128 128" id="Слой_1" version="1.1" viewBox="0 0 128 128" xml:space="preserve" xmlns="http://www.w3.org/2000/svg" xmlns:xlink="http://www.w3.org/1999/xlink"><g><g><path d="M75.4,42.1c-4.6,0-8.7,2-11.4,5.2c-2.8-3.2-6.9-5.2-11.4-5.2c-8.4,0-15.3,6.8-15.3,15.3    c0,4.8,2.2,9,5.6,11.8l0,0L64,85.9l20.7-16.4l0,0c3.7-2.8,6-7.2,6-12.1C90.7,49,83.9,42.1,75.4,42.1z" fill="#F36360"/></g><g><path d="M75.4,39.8c-4.2,0-8.3,1.5-11.4,4.3c-3.2-2.7-7.2-4.3-11.4-4.3c-9.7,0-17.6,7.9-17.6,17.6    c0,5.3,2.3,10.2,6.4,13.5c0,0,0.1,0.1,0.1,0.1l21.1,16.7c0.4,0.3,0.9,0.5,1.4,0.5c0.5,0,1-0.2,1.4-0.5l20.7-16.3    c0.1-0.1,0.1-0.1,0.2-0.2c4.3-3.4,6.7-8.4,6.7-13.8C93,47.7,85.1,39.8,75.4,39.8z M83.3,67.7c-0.1,0.1-0.2,0.1-0.2,0.2L64,83    L44.4,67.5c0,0,0,0-0.1-0.1c-3-2.5-4.8-6.1-4.8-10.1c0-7.2,5.8-13,13-13c3.7,0,7.3,1.6,9.7,4.4c0.4,0.5,1.1,0.8,1.7,0.8    c0.7,0,1.3-0.3,1.7-0.8c2.5-2.8,6-4.4,9.7-4.4c7.2,0,13,5.8,13,13C88.4,61.5,86.6,65.2,83.3,67.7z" fill="#4A374F"/></g></g></svg>